<svg width="388" height="398" viewBox="0 0 388 398" fill="none" xmlns="http://www.w3.org/2000/svg">
<rect width="388" height="398" fill="#444444"/>
<path d="M74.403 61.4643C74.403 51.7934 70.5612 42.5185 63.7228 35.6802C56.8844 28.8418 47.6096 25 37.9387 25C28.2677 25 18.9929 28.8418 12.1545 35.6801C5.31613 42.5185 1.47437 51.7934 1.47437 61.4643L37.9387 61.4643H74.403Z" fill="#444444"/>
<path d="M74.403 61.4643C74.403 51.7934 70.5612 42.5185 63.7228 35.6802C56.8844 28.8418 47.6096 25 37.9387 25C28.2677 25 18.9929 28.8418 12.1545 35.6801C5.31613 42.5185 1.47437 51.7934 1.47437 61.4643L37.9387 61.4643H74.403Z" fill="black" fill-opacity="0.2"/>
<path d="M1.47447 61.4644C1.47447 71.1353 5.31623 80.4102 12.1546 87.2486C18.993 94.0869 28.2678 97.9287 37.9388 97.9287C47.6097 97.9287 56.8845 94.0869 63.7229 87.2486C70.5613 80.4102 74.4031 71.1353 74.4031 61.4644L37.9388 61.4644L1.47447 61.4644Z" fill="#444444"/>
<path d="M1.47447 61.4644C1.47447 71.1353 5.31623 80.4102 12.1546 87.2486C18.993 94.0869 28.2678 97.9287 37.9388 97.9287C47.6097 97.9287 56.8845 94.0869 63.7229 87.2486C70.5613 80.4102 74.4031 71.1353 74.4031 61.4644L37.9388 61.4644L1.47447 61.4644Z" fill="black" fill-opacity="0.2"/>
<rect y="59.0522" width="75" height="5.26316" fill="#444444"/>
<path d="M28.509 61.464C28.509 66.672 32.7309 70.8938 37.9388 70.8938C43.1468 70.8938 47.3687 66.672 47.3687 61.464C47.3687 56.2561 43.1468 52.0342 37.9388 52.0342C32.7309 52.0342 28.509 56.2561 28.509 61.464Z" fill="#444444"/>
<path d="M28.509 61.464C28.509 66.672 32.7309 70.8938 37.9388 70.8938C43.1468 70.8938 47.3687 66.672 47.3687 61.464C47.3687 56.2561 43.1468 52.0342 37.9388 52.0342C32.7309 52.0342 28.509 56.2561 28.509 61.464Z" fill="black" fill-opacity="0.2"/>
<path fill-rule="evenodd" clip-rule="evenodd" d="M24.1228 61.4642C24.1228 69.0945 30.3084 75.28 37.9386 75.28C45.5689 75.28 51.7544 69.0945 51.7544 61.4642C51.7544 53.834 45.5689 47.6484 37.9386 47.6484C30.3084 47.6484 24.1228 53.834 24.1228 61.4642ZM37.9386 70.7254C32.8238 70.7254 28.6775 66.579 28.6775 61.4642C28.6775 56.3494 32.8238 52.2031 37.9386 52.2031C43.0534 52.2031 47.1997 56.3494 47.1997 61.4642C47.1997 66.579 43.0534 70.7254 37.9386 70.7254Z" fill="#444444"/>
<path d="M74.403 262.464C74.403 252.793 70.5612 243.519 63.7228 236.68C56.8844 229.842 47.6096 226 37.9387 226C28.2677 226 18.9929 229.842 12.1545 236.68C5.31613 243.519 1.47437 252.793 1.47437 262.464L37.9387 262.464H74.403Z" fill="#444444"/>
<path d="M74.403 262.464C74.403 252.793 70.5612 243.519 63.7228 236.68C56.8844 229.842 47.6096 226 37.9387 226C28.2677 226 18.9929 229.842 12.1545 236.68C5.31613 243.519 1.47437 252.793 1.47437 262.464L37.9387 262.464H74.403Z" fill="black" fill-opacity="0.2"/>
<path d="M1.47447 262.464C1.47447 272.135 5.31623 281.41 12.1546 288.249C18.993 295.087 28.2678 298.929 37.9388 298.929C47.6097 298.929 56.8845 295.087 63.7229 288.249C70.5613 281.41 74.4031 272.135 74.4031 262.464L37.9388 262.464L1.47447 262.464Z" fill="#444444"/>
<path d="M1.47447 262.464C1.47447 272.135 5.31623 281.41 12.1546 288.249C18.993 295.087 28.2678 298.929 37.9388 298.929C47.6097 298.929 56.8845 295.087 63.7229 288.249C70.5613 281.41 74.4031 272.135 74.4031 262.464L37.9388 262.464L1.47447 262.464Z" fill="black" fill-opacity="0.2"/>
<rect y="260.052" width="75" height="5.26316" fill="#444444"/>
<path d="M28.509 262.464C28.509 267.672 32.7309 271.894 37.9388 271.894C43.1468 271.894 47.3687 267.672 47.3687 262.464C47.3687 257.256 43.1468 253.034 37.9388 253.034C32.7309 253.034 28.509 257.256 28.509 262.464Z" fill="#444444"/>
<path d="M28.509 262.464C28.509 267.672 32.7309 271.894 37.9388 271.894C43.1468 271.894 47.3687 267.672 47.3687 262.464C47.3687 257.256 43.1468 253.034 37.9388 253.034C32.7309 253.034 28.509 257.256 28.509 262.464Z" fill="black" fill-opacity="0.2"/>
<path fill-rule="evenodd" clip-rule="evenodd" d="M24.1228 262.464C24.1228 270.094 30.3084 276.28 37.9386 276.28C45.5689 276.28 51.7544 270.094 51.7544 262.464C51.7544 254.834 45.5689 248.648 37.9386 248.648C30.3084 248.648 24.1228 254.834 24.1228 262.464ZM37.9386 271.725C32.8238 271.725 28.6775 267.579 28.6775 262.464C28.6775 257.349 32.8238 253.203 37.9386 253.203C43.0534 253.203 47.1997 257.349 47.1997 262.464C47.1997 267.579 43.0534 271.725 37.9386 271.725Z" fill="#444444"/>
<path d="M199.403 61.4643C199.403 51.7934 195.561 42.5185 188.723 35.6802C181.884 28.8418 172.61 25 162.939 25C153.268 25 143.993 28.8418 137.155 35.6801C130.316 42.5185 126.474 51.7934 126.474 61.4643L162.939 61.4643H199.403Z" fill="#444444"/>
<path d="M199.403 61.4643C199.403 51.7934 195.561 42.5185 188.723 35.6802C181.884 28.8418 172.61 25 162.939 25C153.268 25 143.993 28.8418 137.155 35.6801C130.316 42.5185 126.474 51.7934 126.474 61.4643L162.939 61.4643H199.403Z" fill="black" fill-opacity="0.2"/>
<path d="M126.474 61.4644C126.474 71.1353 130.316 80.4102 137.155 87.2486C143.993 94.0869 153.268 97.9287 162.939 97.9287C172.61 97.9287 181.885 94.0869 188.723 87.2486C195.561 80.4102 199.403 71.1353 199.403 61.4644L162.939 61.4644L126.474 61.4644Z" fill="#444444"/>
<path d="M126.474 61.4644C126.474 71.1353 130.316 80.4102 137.155 87.2486C143.993 94.0869 153.268 97.9287 162.939 97.9287C172.61 97.9287 181.885 94.0869 188.723 87.2486C195.561 80.4102 199.403 71.1353 199.403 61.4644L162.939 61.4644L126.474 61.4644Z" fill="black" fill-opacity="0.2"/>
<rect x="125" y="59.0522" width="75" height="5.26316" fill="#444444"/>
<path d="M153.509 61.464C153.509 66.672 157.731 70.8938 162.939 70.8938C168.147 70.8938 172.369 66.672 172.369 61.464C172.369 56.2561 168.147 52.0342 162.939 52.0342C157.731 52.0342 153.509 56.2561 153.509 61.464Z" fill="#444444"/>
<path d="M153.509 61.464C153.509 66.672 157.731 70.8938 162.939 70.8938C168.147 70.8938 172.369 66.672 172.369 61.464C172.369 56.2561 168.147 52.0342 162.939 52.0342C157.731 52.0342 153.509 56.2561 153.509 61.464Z" fill="black" fill-opacity="0.2"/>
<path fill-rule="evenodd" clip-rule="evenodd" d="M149.123 61.4642C149.123 69.0945 155.308 75.28 162.939 75.28C170.569 75.28 176.754 69.0945 176.754 61.4642C176.754 53.834 170.569 47.6484 162.939 47.6484C155.308 47.6484 149.123 53.834 149.123 61.4642ZM162.939 70.7254C157.824 70.7254 153.677 66.579 153.677 61.4642C153.677 56.3494 157.824 52.2031 162.939 52.2031C168.053 52.2031 172.2 56.3494 172.2 61.4642C172.2 66.579 168.053 70.7254 162.939 70.7254Z" fill="#444444"/>
<path d="M199.403 262.464C199.403 252.793 195.561 243.519 188.723 236.68C181.884 229.842 172.61 226 162.939 226C153.268 226 143.993 229.842 137.155 236.68C130.316 243.519 126.474 252.793 126.474 262.464L162.939 262.464H199.403Z" fill="#444444"/>
<path d="M199.403 262.464C199.403 252.793 195.561 243.519 188.723 236.68C181.884 229.842 172.61 226 162.939 226C153.268 226 143.993 229.842 137.155 236.68C130.316 243.519 126.474 252.793 126.474 262.464L162.939 262.464H199.403Z" fill="black" fill-opacity="0.2"/>
<path d="M126.474 262.464C126.474 272.135 130.316 281.41 137.155 288.249C143.993 295.087 153.268 298.929 162.939 298.929C172.61 298.929 181.885 295.087 188.723 288.249C195.561 281.41 199.403 272.135 199.403 262.464L162.939 262.464L126.474 262.464Z" fill="#444444"/>
<path d="M126.474 262.464C126.474 272.135 130.316 281.41 137.155 288.249C143.993 295.087 153.268 298.929 162.939 298.929C172.61 298.929 181.885 295.087 188.723 288.249C195.561 281.41 199.403 272.135 199.403 262.464L162.939 262.464L126.474 262.464Z" fill="black" fill-opacity="0.2"/>
<rect x="125" y="260.052" width="75" height="5.26316" fill="#444444"/>
<path d="M153.509 262.464C153.509 267.672 157.731 271.894 162.939 271.894C168.147 271.894 172.369 267.672 172.369 262.464C172.369 257.256 168.147 253.034 162.939 253.034C157.731 253.034 153.509 257.256 153.509 262.464Z" fill="#444444"/>
<path d="M153.509 262.464C153.509 267.672 157.731 271.894 162.939 271.894C168.147 271.894 172.369 267.672 172.369 262.464C172.369 257.256 168.147 253.034 162.939 253.034C157.731 253.034 153.509 257.256 153.509 262.464Z" fill="black" fill-opacity="0.2"/>
<path fill-rule="evenodd" clip-rule="evenodd" d="M149.123 262.464C149.123 270.094 155.308 276.28 162.939 276.28C170.569 276.28 176.754 270.094 176.754 262.464C176.754 254.834 170.569 248.648 162.939 248.648C155.308 248.648 149.123 254.834 149.123 262.464ZM162.939 271.725C157.824 271.725 153.677 267.579 153.677 262.464C153.677 257.349 157.824 253.203 162.939 253.203C168.053 253.203 172.2 257.349 172.2 262.464C172.2 267.579 168.053 271.725 162.939 271.725Z" fill="#444444"/>
<path d="M262.403 161.464C262.403 151.793 258.561 142.519 251.723 135.68C244.884 128.842 235.61 125 225.939 125C216.268 125 206.993 128.842 200.155 135.68C193.316 142.519 189.474 151.793 189.474 161.464L225.939 161.464H262.403Z" fill="#444444"/>
<path d="M262.403 161.464C262.403 151.793 258.561 142.519 251.723 135.68C244.884 128.842 235.61 125 225.939 125C216.268 125 206.993 128.842 200.155 135.68C193.316 142.519 189.474 151.793 189.474 161.464L225.939 161.464H262.403Z" fill="black" fill-opacity="0.2"/>
<path d="M189.474 161.464C189.474 171.135 193.316 180.41 200.155 187.249C206.993 194.087 216.268 197.929 225.939 197.929C235.61 197.929 244.885 194.087 251.723 187.249C258.561 180.41 262.403 171.135 262.403 161.464L225.939 161.464L189.474 161.464Z" fill="#444444"/>
<path d="M189.474 161.464C189.474 171.135 193.316 180.41 200.155 187.249C206.993 194.087 216.268 197.929 225.939 197.929C235.61 197.929 244.885 194.087 251.723 187.249C258.561 180.41 262.403 171.135 262.403 161.464L225.939 161.464L189.474 161.464Z" fill="black" fill-opacity="0.2"/>
<rect x="188" y="159.052" width="75" height="5.26316" fill="#444444"/>
<path d="M216.509 161.464C216.509 166.672 220.731 170.894 225.939 170.894C231.147 170.894 235.369 166.672 235.369 161.464C235.369 156.256 231.147 152.034 225.939 152.034C220.731 152.034 216.509 156.256 216.509 161.464Z" fill="#444444"/>
<path d="M216.509 161.464C216.509 166.672 220.731 170.894 225.939 170.894C231.147 170.894 235.369 166.672 235.369 161.464C235.369 156.256 231.147 152.034 225.939 152.034C220.731 152.034 216.509 156.256 216.509 161.464Z" fill="black" fill-opacity="0.2"/>
<path fill-rule="evenodd" clip-rule="evenodd" d="M212.123 161.464C212.123 169.094 218.308 175.28 225.939 175.28C233.569 175.28 239.754 169.094 239.754 161.464C239.754 153.834 233.569 147.648 225.939 147.648C218.308 147.648 212.123 153.834 212.123 161.464ZM225.939 170.725C220.824 170.725 216.677 166.579 216.677 161.464C216.677 156.349 220.824 152.203 225.939 152.203C231.053 152.203 235.2 156.349 235.2 161.464C235.2 166.579 231.053 170.725 225.939 170.725Z" fill="#444444"/>
<path d="M261.403 361.464C261.403 351.793 257.561 342.519 250.723 335.68C243.884 328.842 234.61 325 224.939 325C215.268 325 205.993 328.842 199.155 335.68C192.316 342.519 188.474 351.793 188.474 361.464L224.939 361.464H261.403Z" fill="#444444"/>
<path d="M261.403 361.464C261.403 351.793 257.561 342.519 250.723 335.68C243.884 328.842 234.61 325 224.939 325C215.268 325 205.993 328.842 199.155 335.68C192.316 342.519 188.474 351.793 188.474 361.464L224.939 361.464H261.403Z" fill="black" fill-opacity="0.2"/>
<path d="M188.474 361.464C188.474 371.135 192.316 380.41 199.155 387.249C205.993 394.087 215.268 397.929 224.939 397.929C234.61 397.929 243.885 394.087 250.723 387.249C257.561 380.41 261.403 371.135 261.403 361.464L224.939 361.464L188.474 361.464Z" fill="#444444"/>
<path d="M188.474 361.464C188.474 371.135 192.316 380.41 199.155 387.249C205.993 394.087 215.268 397.929 224.939 397.929C234.61 397.929 243.885 394.087 250.723 387.249C257.561 380.41 261.403 371.135 261.403 361.464L224.939 361.464L188.474 361.464Z" fill="black" fill-opacity="0.2"/>
<rect x="187" y="359.052" width="75" height="5.26316" fill="#444444"/>
<path d="M215.509 361.464C215.509 366.672 219.731 370.894 224.939 370.894C230.147 370.894 234.369 366.672 234.369 361.464C234.369 356.256 230.147 352.034 224.939 352.034C219.731 352.034 215.509 356.256 215.509 361.464Z" fill="#444444"/>
<path d="M215.509 361.464C215.509 366.672 219.731 370.894 224.939 370.894C230.147 370.894 234.369 366.672 234.369 361.464C234.369 356.256 230.147 352.034 224.939 352.034C219.731 352.034 215.509 356.256 215.509 361.464Z" fill="black" fill-opacity="0.2"/>
<path fill-rule="evenodd" clip-rule="evenodd" d="M211.123 361.464C211.123 369.094 217.308 375.28 224.939 375.28C232.569 375.28 238.754 369.094 238.754 361.464C238.754 353.834 232.569 347.648 224.939 347.648C217.308 347.648 211.123 353.834 211.123 361.464ZM224.939 370.725C219.824 370.725 215.677 366.579 215.677 361.464C215.677 356.349 219.824 352.203 224.939 352.203C230.053 352.203 234.2 356.349 234.2 361.464C234.2 366.579 230.053 370.725 224.939 370.725Z" fill="#444444"/>
<path d="M387.403 161.464C387.403 151.793 383.561 142.519 376.723 135.68C369.884 128.842 360.61 125 350.939 125C341.268 125 331.993 128.842 325.155 135.68C318.316 142.519 314.474 151.793 314.474 161.464L350.939 161.464H387.403Z" fill="#444444"/>
<path d="M387.403 161.464C387.403 151.793 383.561 142.519 376.723 135.68C369.884 128.842 360.61 125 350.939 125C341.268 125 331.993 128.842 325.155 135.68C318.316 142.519 314.474 151.793 314.474 161.464L350.939 161.464H387.403Z" fill="black" fill-opacity="0.2"/>
<path d="M314.474 161.464C314.474 171.135 318.316 180.41 325.155 187.249C331.993 194.087 341.268 197.929 350.939 197.929C360.61 197.929 369.885 194.087 376.723 187.249C383.561 180.41 387.403 171.135 387.403 161.464L350.939 161.464L314.474 161.464Z" fill="#444444"/>
<path d="M314.474 161.464C314.474 171.135 318.316 180.41 325.155 187.249C331.993 194.087 341.268 197.929 350.939 197.929C360.61 197.929 369.885 194.087 376.723 187.249C383.561 180.41 387.403 171.135 387.403 161.464L350.939 161.464L314.474 161.464Z" fill="black" fill-opacity="0.2"/>
<rect x="313" y="159.052" width="75" height="5.26316" fill="#444444"/>
<path d="M341.509 161.464C341.509 166.672 345.731 170.894 350.939 170.894C356.147 170.894 360.369 166.672 360.369 161.464C360.369 156.256 356.147 152.034 350.939 152.034C345.731 152.034 341.509 156.256 341.509 161.464Z" fill="#444444"/>
<path d="M341.509 161.464C341.509 166.672 345.731 170.894 350.939 170.894C356.147 170.894 360.369 166.672 360.369 161.464C360.369 156.256 356.147 152.034 350.939 152.034C345.731 152.034 341.509 156.256 341.509 161.464Z" fill="black" fill-opacity="0.2"/>
<path fill-rule="evenodd" clip-rule="evenodd" d="M337.123 161.464C337.123 169.094 343.308 175.28 350.939 175.28C358.569 175.28 364.754 169.094 364.754 161.464C364.754 153.834 358.569 147.648 350.939 147.648C343.308 147.648 337.123 153.834 337.123 161.464ZM350.939 170.725C345.824 170.725 341.677 166.579 341.677 161.464C341.677 156.349 345.824 152.203 350.939 152.203C356.053 152.203 360.2 156.349 360.2 161.464C360.2 166.579 356.053 170.725 350.939 170.725Z" fill="#444444"/>
<path d="M386.403 361.464C386.403 351.793 382.561 342.519 375.723 335.68C368.884 328.842 359.61 325 349.939 325C340.268 325 330.993 328.842 324.155 335.68C317.316 342.519 313.474 351.793 313.474 361.464L349.939 361.464H386.403Z" fill="#444444"/>
<path d="M386.403 361.464C386.403 351.793 382.561 342.519 375.723 335.68C368.884 328.842 359.61 325 349.939 325C340.268 325 330.993 328.842 324.155 335.68C317.316 342.519 313.474 351.793 313.474 361.464L349.939 361.464H386.403Z" fill="black" fill-opacity="0.2"/>
<path d="M313.474 361.464C313.474 371.135 317.316 380.41 324.155 387.249C330.993 394.087 340.268 397.929 349.939 397.929C359.61 397.929 368.885 394.087 375.723 387.249C382.561 380.41 386.403 371.135 386.403 361.464L349.939 361.464L313.474 361.464Z" fill="#444444"/>
<path d="M313.474 361.464C313.474 371.135 317.316 380.41 324.155 387.249C330.993 394.087 340.268 397.929 349.939 397.929C359.61 397.929 368.885 394.087 375.723 387.249C382.561 380.41 386.403 371.135 386.403 361.464L349.939 361.464L313.474 361.464Z" fill="black" fill-opacity="0.2"/>
<rect x="312" y="359.052" width="75" height="5.26316" fill="#444444"/>
<path d="M340.509 361.464C340.509 366.672 344.731 370.894 349.939 370.894C355.147 370.894 359.369 366.672 359.369 361.464C359.369 356.256 355.147 352.034 349.939 352.034C344.731 352.034 340.509 356.256 340.509 361.464Z" fill="#444444"/>
<path d="M340.509 361.464C340.509 366.672 344.731 370.894 349.939 370.894C355.147 370.894 359.369 366.672 359.369 361.464C359.369 356.256 355.147 352.034 349.939 352.034C344.731 352.034 340.509 356.256 340.509 361.464Z" fill="black" fill-opacity="0.2"/>
<path fill-rule="evenodd" clip-rule="evenodd" d="M336.123 361.464C336.123 369.094 342.308 375.28 349.939 375.28C357.569 375.28 363.754 369.094 363.754 361.464C363.754 353.834 357.569 347.648 349.939 347.648C342.308 347.648 336.123 353.834 336.123 361.464ZM349.939 370.725C344.824 370.725 340.677 366.579 340.677 361.464C340.677 356.349 344.824 352.203 349.939 352.203C355.053 352.203 359.2 356.349 359.2 361.464C359.2 366.579 355.053 370.725 349.939 370.725Z" fill="#444444"/>
<path d="M137.403 161.464C137.403 151.793 133.561 142.519 126.723 135.68C119.884 128.842 110.61 125 100.939 125C91.2677 125 81.9929 128.842 75.1545 135.68C68.3161 142.519 64.4744 151.793 64.4744 161.464L100.939 161.464H137.403Z" fill="#444444"/>
<path d="M137.403 161.464C137.403 151.793 133.561 142.519 126.723 135.68C119.884 128.842 110.61 125 100.939 125C91.2677 125 81.9929 128.842 75.1545 135.68C68.3161 142.519 64.4744 151.793 64.4744 161.464L100.939 161.464H137.403Z" fill="black" fill-opacity="0.2"/>
<path d="M64.4745 161.464C64.4745 171.135 68.3162 180.41 75.1546 187.249C81.993 194.087 91.2678 197.929 100.939 197.929C110.61 197.929 119.885 194.087 126.723 187.249C133.561 180.41 137.403 171.135 137.403 161.464L100.939 161.464L64.4745 161.464Z" fill="#444444"/>
<path d="M64.4745 161.464C64.4745 171.135 68.3162 180.41 75.1546 187.249C81.993 194.087 91.2678 197.929 100.939 197.929C110.61 197.929 119.885 194.087 126.723 187.249C133.561 180.41 137.403 171.135 137.403 161.464L100.939 161.464L64.4745 161.464Z" fill="black" fill-opacity="0.2"/>
<rect x="63" y="159.052" width="75" height="5.26316" fill="#444444"/>
<path d="M91.509 161.464C91.509 166.672 95.7309 170.894 100.939 170.894C106.147 170.894 110.369 166.672 110.369 161.464C110.369 156.256 106.147 152.034 100.939 152.034C95.7309 152.034 91.509 156.256 91.509 161.464Z" fill="#444444"/>
<path d="M91.509 161.464C91.509 166.672 95.7309 170.894 100.939 170.894C106.147 170.894 110.369 166.672 110.369 161.464C110.369 156.256 106.147 152.034 100.939 152.034C95.7309 152.034 91.509 156.256 91.509 161.464Z" fill="black" fill-opacity="0.2"/>
<path fill-rule="evenodd" clip-rule="evenodd" d="M87.1228 161.464C87.1228 169.094 93.3084 175.28 100.939 175.28C108.569 175.28 114.754 169.094 114.754 161.464C114.754 153.834 108.569 147.648 100.939 147.648C93.3084 147.648 87.1228 153.834 87.1228 161.464ZM100.939 170.725C95.8238 170.725 91.6775 166.579 91.6775 161.464C91.6775 156.349 95.8238 152.203 100.939 152.203C106.053 152.203 110.2 156.349 110.2 161.464C110.2 166.579 106.053 170.725 100.939 170.725Z" fill="#444444"/>
<path d="M136.403 361.464C136.403 351.793 132.561 342.519 125.723 335.68C118.884 328.842 109.61 325 99.9387 325C90.2677 325 80.9929 328.842 74.1545 335.68C67.3161 342.519 63.4744 351.793 63.4744 361.464L99.9387 361.464H136.403Z" fill="#444444"/>
<path d="M136.403 361.464C136.403 351.793 132.561 342.519 125.723 335.68C118.884 328.842 109.61 325 99.9387 325C90.2677 325 80.9929 328.842 74.1545 335.68C67.3161 342.519 63.4744 351.793 63.4744 361.464L99.9387 361.464H136.403Z" fill="black" fill-opacity="0.2"/>
<path d="M63.4745 361.464C63.4745 371.135 67.3162 380.41 74.1546 387.249C80.993 394.087 90.2678 397.929 99.9388 397.929C109.61 397.929 118.885 394.087 125.723 387.249C132.561 380.41 136.403 371.135 136.403 361.464L99.9388 361.464L63.4745 361.464Z" fill="#444444"/>
<path d="M63.4745 361.464C63.4745 371.135 67.3162 380.41 74.1546 387.249C80.993 394.087 90.2678 397.929 99.9388 397.929C109.61 397.929 118.885 394.087 125.723 387.249C132.561 380.41 136.403 371.135 136.403 361.464L99.9388 361.464L63.4745 361.464Z" fill="black" fill-opacity="0.2"/>
<rect x="62" y="359.052" width="75" height="5.26316" fill="#444444"/>
<path d="M90.509 361.464C90.509 366.672 94.7309 370.894 99.9388 370.894C105.147 370.894 109.369 366.672 109.369 361.464C109.369 356.256 105.147 352.034 99.9388 352.034C94.7309 352.034 90.509 356.256 90.509 361.464Z" fill="#444444"/>
<path d="M90.509 361.464C90.509 366.672 94.7309 370.894 99.9388 370.894C105.147 370.894 109.369 366.672 109.369 361.464C109.369 356.256 105.147 352.034 99.9388 352.034C94.7309 352.034 90.509 356.256 90.509 361.464Z" fill="black" fill-opacity="0.2"/>
<path fill-rule="evenodd" clip-rule="evenodd" d="M86.1228 361.464C86.1228 369.094 92.3084 375.28 99.9386 375.28C107.569 375.28 113.754 369.094 113.754 361.464C113.754 353.834 107.569 347.648 99.9386 347.648C92.3084 347.648 86.1228 353.834 86.1228 361.464ZM99.9386 370.725C94.8238 370.725 90.6775 366.579 90.6775 361.464C90.6775 356.349 94.8238 352.203 99.9386 352.203C105.053 352.203 109.2 356.349 109.2 361.464C109.2 366.579 105.053 370.725 99.9386 370.725Z" fill="#444444"/>
<path d="M324.403 62.4643C324.403 52.7934 320.561 43.5185 313.723 36.6802C306.884 29.8418 297.61 26 287.939 26C278.268 26 268.993 29.8418 262.155 36.6801C255.316 43.5185 251.474 52.7934 251.474 62.4643L287.939 62.4643H324.403Z" fill="#444444"/>
<path d="M324.403 62.4643C324.403 52.7934 320.561 43.5185 313.723 36.6802C306.884 29.8418 297.61 26 287.939 26C278.268 26 268.993 29.8418 262.155 36.6801C255.316 43.5185 251.474 52.7934 251.474 62.4643L287.939 62.4643H324.403Z" fill="black" fill-opacity="0.2"/>
<path d="M251.474 62.4644C251.474 72.1353 255.316 81.4102 262.155 88.2486C268.993 95.0869 278.268 98.9287 287.939 98.9287C297.61 98.9287 306.885 95.0869 313.723 88.2486C320.561 81.4102 324.403 72.1353 324.403 62.4644L287.939 62.4644L251.474 62.4644Z" fill="#444444"/>
<path d="M251.474 62.4644C251.474 72.1353 255.316 81.4102 262.155 88.2486C268.993 95.0869 278.268 98.9287 287.939 98.9287C297.61 98.9287 306.885 95.0869 313.723 88.2486C320.561 81.4102 324.403 72.1353 324.403 62.4644L287.939 62.4644L251.474 62.4644Z" fill="black" fill-opacity="0.2"/>
<rect x="250" y="60.0522" width="75" height="5.26316" fill="#444444"/>
<path d="M278.509 62.464C278.509 67.672 282.731 71.8938 287.939 71.8938C293.147 71.8938 297.369 67.672 297.369 62.464C297.369 57.2561 293.147 53.0342 287.939 53.0342C282.731 53.0342 278.509 57.2561 278.509 62.464Z" fill="#444444"/>
<path d="M278.509 62.464C278.509 67.672 282.731 71.8938 287.939 71.8938C293.147 71.8938 297.369 67.672 297.369 62.464C297.369 57.2561 293.147 53.0342 287.939 53.0342C282.731 53.0342 278.509 57.2561 278.509 62.464Z" fill="black" fill-opacity="0.2"/>
<path fill-rule="evenodd" clip-rule="evenodd" d="M274.123 62.4642C274.123 70.0945 280.308 76.28 287.939 76.28C295.569 76.28 301.754 70.0945 301.754 62.4642C301.754 54.834 295.569 48.6484 287.939 48.6484C280.308 48.6484 274.123 54.834 274.123 62.4642ZM287.939 71.7254C282.824 71.7254 278.677 67.579 278.677 62.4642C278.677 57.3494 282.824 53.2031 287.939 53.2031C293.053 53.2031 297.2 57.3494 297.2 62.4642C297.2 67.579 293.053 71.7254 287.939 71.7254Z" fill="#444444"/>
<path d="M324.403 263.464C324.403 253.793 320.561 244.519 313.723 237.68C306.884 230.842 297.61 227 287.939 227C278.268 227 268.993 230.842 262.155 237.68C255.316 244.519 251.474 253.793 251.474 263.464L287.939 263.464H324.403Z" fill="#444444"/>
<path d="M324.403 263.464C324.403 253.793 320.561 244.519 313.723 237.68C306.884 230.842 297.61 227 287.939 227C278.268 227 268.993 230.842 262.155 237.68C255.316 244.519 251.474 253.793 251.474 263.464L287.939 263.464H324.403Z" fill="black" fill-opacity="0.2"/>
<path d="M251.474 263.464C251.474 273.135 255.316 282.41 262.155 289.249C268.993 296.087 278.268 299.929 287.939 299.929C297.61 299.929 306.885 296.087 313.723 289.249C320.561 282.41 324.403 273.135 324.403 263.464L287.939 263.464L251.474 263.464Z" fill="#444444"/>
<path d="M251.474 263.464C251.474 273.135 255.316 282.41 262.155 289.249C268.993 296.087 278.268 299.929 287.939 299.929C297.61 299.929 306.885 296.087 313.723 289.249C320.561 282.41 324.403 273.135 324.403 263.464L287.939 263.464L251.474 263.464Z" fill="black" fill-opacity="0.2"/>
<rect x="250" y="261.052" width="75" height="5.26316" fill="#444444"/>
<path d="M278.509 263.464C278.509 268.672 282.731 272.894 287.939 272.894C293.147 272.894 297.369 268.672 297.369 263.464C297.369 258.256 293.147 254.034 287.939 254.034C282.731 254.034 278.509 258.256 278.509 263.464Z" fill="#444444"/>
<path d="M278.509 263.464C278.509 268.672 282.731 272.894 287.939 272.894C293.147 272.894 297.369 268.672 297.369 263.464C297.369 258.256 293.147 254.034 287.939 254.034C282.731 254.034 278.509 258.256 278.509 263.464Z" fill="black" fill-opacity="0.2"/>
<path fill-rule="evenodd" clip-rule="evenodd" d="M274.123 263.464C274.123 271.094 280.308 277.28 287.939 277.28C295.569 277.28 301.754 271.094 301.754 263.464C301.754 255.834 295.569 249.648 287.939 249.648C280.308 249.648 274.123 255.834 274.123 263.464ZM287.939 272.725C282.824 272.725 278.677 268.579 278.677 263.464C278.677 258.349 282.824 254.203 287.939 254.203C293.053 254.203 297.2 258.349 297.2 263.464C297.2 268.579 293.053 272.725 287.939 272.725Z" fill="#444444"/>
</svg>
