<svg width="289" height="266" viewBox="0 0 289 266" fill="none" xmlns="http://www.w3.org/2000/svg">
<path d="M243.091 223.958C251.4 235.329 248.917 251.282 237.546 259.591C226.175 267.9 210.221 265.417 201.912 254.046L144.502 175.474L87.0911 254.046C78.7824 265.417 62.8287 267.9 51.4575 259.591C40.0863 251.282 37.6037 235.329 45.9124 223.958L112.92 132.252L45.9124 40.546C37.6037 29.1748 40.0863 13.2211 51.4575 4.9124C62.8287 -3.39629 78.7824 -0.913654 87.0911 10.4575L144.502 89.0292L201.912 10.4575C210.221 -0.913645 226.175 -3.39629 237.546 4.9124C248.917 13.2211 251.4 29.1748 243.091 40.546L176.084 132.252L243.091 223.958Z" fill="#CB2929"/>
</svg>
