<svg width="72" height="106" viewBox="0 0 72 106" fill="none" xmlns="http://www.w3.org/2000/svg">
<path d="M55.5 69C45.5462 68.9578 37 62.958 37 52.9943C37 43.0307 45.5462 36.5422 55.5 36.5L55.5 3C43.0363 3.00001 26.8131 8.68685 18 17.5C9.18686 26.3131 3 40.5307 3 52.9943C3 65.458 10.9512 79.6869 19.7643 88.5C28.5775 97.3131 43.0363 101.5 55.5 101.5L55.5 69Z" fill="#514C8A"/>
<path fill-rule="evenodd" clip-rule="evenodd" d="M57.9943 66.0251L57.9943 104.989H52.9943C39.2046 104.989 25.9796 99.5107 16.2288 89.7599C6.47796 80.009 1 66.7841 1 52.9943C1 39.2046 6.47795 25.9796 16.2288 16.2288C25.9796 6.47796 39.2046 1.00001 52.9943 1L57.9943 1L57.9943 39.8069L53.0155 39.828C45.8137 39.8586 39.9845 45.7067 39.9845 52.916C39.9845 60.1253 45.8137 65.9734 53.0155 66.004L57.9943 66.0251ZM52.9943 34.8281C43.0406 34.8703 34.9845 42.9523 34.9845 52.916C34.9845 62.8797 43.0406 70.9617 52.9943 71.0039V99.9886C51.3163 99.9886 49.6475 99.8989 47.9943 99.7221C37.3689 98.5854 27.3909 93.8509 19.7643 86.2243C10.9512 77.4112 6 65.458 6 52.9943C6 40.5307 10.9512 28.5775 19.7643 19.7643C27.3909 12.1377 37.3689 7.40323 47.9943 6.26659C49.6474 6.08975 51.3163 6 52.9943 6L52.9943 34.8281Z" fill="#58585A"/>
<path fill-rule="evenodd" clip-rule="evenodd" d="M52.9162 71.004C62.906 71.004 71.0043 62.9057 71.0043 52.916C71.0043 42.9262 62.906 34.8279 52.9162 34.8279C42.9264 34.8279 34.8281 42.9262 34.8281 52.916C34.8281 62.9057 42.9264 71.004 52.9162 71.004Z" fill="#DCDCDC"/>
<path fill-rule="evenodd" clip-rule="evenodd" d="M52.9162 66.004C60.1446 66.004 66.0043 60.1443 66.0043 52.916C66.0043 45.6876 60.1446 39.8279 52.9162 39.8279C45.6879 39.8279 39.8281 45.6876 39.8281 52.916C39.8281 60.1443 45.6879 66.004 52.9162 66.004ZM71.0043 52.916C71.0043 62.9057 62.906 71.004 52.9162 71.004C42.9264 71.004 34.8281 62.9057 34.8281 52.916C34.8281 42.9262 42.9264 34.8279 52.9162 34.8279C62.906 34.8279 71.0043 42.9262 71.0043 52.916Z" fill="#58585A"/>
<path d="M17.1266 17.255C22.6393 12.1474 32.3773 7.14422 36.1163 10.4843C39.8553 13.8245 39.9961 27.8609 31.4171 34.2416C22.8381 40.6223 14.2492 37.5977 10.5102 34.2576C6.77114 30.9175 11.6017 22.3739 17.1266 17.255Z" fill="#C275A1"/>
<path fill-rule="evenodd" clip-rule="evenodd" d="M32.0875 4.42163C34.3593 4.30371 37.1727 4.72384 39.447 6.75552C41.5288 8.61523 42.5546 11.3328 43.0541 13.6582C43.5882 16.1451 43.6931 18.9738 43.3497 21.8215C42.6727 27.4342 40.1214 33.9988 34.4008 38.2536C23.538 46.3329 12.3113 42.5714 7.17882 37.9864C4.90509 35.9553 4.16583 33.2571 4.18959 30.8621C4.21229 28.5728 4.9092 26.3249 5.78126 24.3788C7.5343 20.4665 10.5643 16.5186 13.728 13.5873C16.882 10.6651 21.1949 7.79467 25.3901 6.07529C27.4827 5.21765 29.8008 4.54033 32.0875 4.42163ZM36.116 10.4844C32.377 7.14424 22.639 12.1474 17.1263 17.2551C11.6014 22.3739 6.77084 30.9175 10.5098 34.2576C14.2489 37.5977 22.8378 40.6224 31.4168 34.2416C39.9958 27.8609 39.855 13.8245 36.116 10.4844Z" fill="#58585A"/>
<path d="M17.1266 88.7337C22.6393 93.8414 32.3773 98.8445 36.1163 95.5044C39.8553 92.1643 39.9961 78.1279 31.4171 71.7472C22.8381 65.3664 14.2492 68.3911 10.5102 71.7312C6.77114 75.0713 11.6017 83.6149 17.1266 88.7337Z" fill="#C275A1"/>
<path fill-rule="evenodd" clip-rule="evenodd" d="M32.0875 101.567C34.3593 101.685 37.1727 101.265 39.447 99.2333C41.5288 97.3736 42.5546 94.656 43.0541 92.3306C43.5882 89.8437 43.6931 87.015 43.3497 84.1674C42.6727 78.5546 40.1214 71.99 34.4008 67.7352C23.538 59.6559 12.3113 63.4175 7.17882 68.0024C4.90509 70.0336 4.16584 72.7317 4.18959 75.1267C4.21229 77.416 4.90921 79.6639 5.78126 81.6101C7.5343 85.5223 10.5643 89.4702 13.728 92.4015C16.882 95.3237 21.1949 98.1942 25.3901 99.9135C27.4827 100.771 29.8008 101.449 32.0875 101.567ZM36.116 95.5045C32.377 98.8446 22.639 93.8414 17.1263 88.7338C11.6014 83.6149 6.77084 75.0714 10.5099 71.7312C14.2489 68.3911 22.8378 65.3665 31.4168 71.7472C39.9958 78.1279 39.855 92.1644 36.116 95.5045Z" fill="#58585A"/>
<path d="M22 57.5L27.8235 53L22 48.5L31.3824 44L33 46.4231L26.5294 49.5385L31.0588 53L26.5294 56.4615L33 59.5769L31.3824 62L22 57.5Z" fill="#EEF0F1"/>
</svg>
