<svg width="72" height="106" viewBox="0 0 72 106" fill="none" xmlns="http://www.w3.org/2000/svg">
<path d="M13 71.0039C22.9538 70.9617 31.0098 62.8796 31.0098 52.916C31.0098 42.9523 22.9538 34.8703 13 34.8281L13 6C25.4637 6.00001 37.4169 10.9512 46.23 19.7643C55.0432 28.5775 59.9943 40.5307 59.9943 52.9943C59.9943 65.458 55.0431 77.4112 46.23 86.2243C37.4169 95.0375 25.4637 99.9886 13 99.9886L13 71.0039Z" fill="#ECECEC"/>
<path fill-rule="evenodd" clip-rule="evenodd" d="M8 66.0251L12.9788 66.004C20.1806 65.9734 26.0098 60.1253 26.0098 52.916C26.0098 45.7067 20.1806 39.8586 12.9788 39.828L8 39.8069L8.00001 1L13 1C26.7898 1.00001 40.0147 6.47796 49.7655 16.2288C59.5164 25.9796 64.9943 39.2046 64.9943 52.9943C64.9943 66.7841 59.5164 80.009 49.7655 89.7599C40.0147 99.5107 26.7897 104.989 13 104.989H8L8 66.0251ZM13 6C14.6781 6 16.3469 6.08975 18 6.26659C28.6254 7.40323 38.6034 12.1377 46.23 19.7643C55.0432 28.5775 59.9943 40.5307 59.9943 52.9943C59.9943 65.458 55.0431 77.4112 46.23 86.2243C38.6034 93.8509 28.6254 98.5854 18 99.7221C16.3469 99.8989 14.6781 99.9886 13 99.9886V71.0039C22.9538 70.9617 31.0098 62.8797 31.0098 52.916C31.0098 42.9523 22.9538 34.8703 13 34.8281L13 6Z" fill="#58585A"/>
</svg>
