<svg width="321" height="321" viewBox="0 0 321 321" fill="none" xmlns="http://www.w3.org/2000/svg">
<path d="M313 160.5C313 120.054 296.933 81.2655 268.334 52.6662C239.734 24.0669 200.946 8 160.5 8C120.054 8 81.2655 24.0669 52.6662 52.6662C24.0669 81.2655 8.00001 120.054 8 160.5L160.5 160.5H313Z" fill="#EE4035"/>
<path d="M313 160.5C313 120.054 296.933 81.2655 268.334 52.6662C239.734 24.0669 200.946 8 160.5 8C120.054 8 81.2655 24.0669 52.6662 52.6662C24.0669 81.2655 8.00001 120.054 8 160.5L160.5 160.5H313Z" fill="url(#paint0_linear_4_14)" fill-opacity="0.2"/>
<path d="M8.00001 160.5C8.00001 200.945 24.0669 239.734 52.6662 268.334C81.2655 296.933 120.054 313 160.5 313C200.946 313 239.734 296.933 268.334 268.334C296.933 239.735 313 200.946 313 160.5L160.5 160.5L8.00001 160.5Z" fill="#ECECEC"/>
<path d="M8.00001 160.5C8.00001 200.945 24.0669 239.734 52.6662 268.334C81.2655 296.933 120.054 313 160.5 313C200.946 313 239.734 296.933 268.334 268.334C296.933 239.735 313 200.946 313 160.5L160.5 160.5L8.00001 160.5Z" fill="url(#paint1_linear_4_14)" fill-opacity="0.2"/>
<rect x="2" y="153" width="314" height="16" fill="#58585A"/>
<circle cx="30.5" cy="30.5" r="38" transform="matrix(-1 0 0 1 191 130)" fill="#ECECEC"/>
<circle cx="30.5" cy="30.5" r="38" transform="matrix(-1 0 0 1 191 130)" fill="url(#paint2_linear_4_14)" fill-opacity="0.2"/>
<circle cx="30.5" cy="30.5" r="38" transform="matrix(-1 0 0 1 191 130)" stroke="#58585A" stroke-width="15"/>
<circle cx="160.5" cy="160.5" r="156.5" stroke="#58585A" stroke-width="8"/>
<defs>
<linearGradient id="paint0_linear_4_14" x1="101.5" y1="21" x2="126" y2="77" gradientUnits="userSpaceOnUse">
<stop stop-color="#676767"/>
<stop offset="1"/>
</linearGradient>
<linearGradient id="paint1_linear_4_14" x1="153" y1="193" x2="195.5" y2="270.5" gradientUnits="userSpaceOnUse">
<stop stop-color="white"/>
<stop offset="1"/>
</linearGradient>
<linearGradient id="paint2_linear_4_14" x1="31" y1="31" x2="19.5" y2="61" gradientUnits="userSpaceOnUse">
<stop stop-color="white"/>
<stop offset="1"/>
</linearGradient>
</defs>
</svg>
