<svg width="175" height="175" viewBox="0 0 175 175" fill="none" xmlns="http://www.w3.org/2000/svg">
<path d="M170.639 87.5C170.639 65.4503 161.879 44.3036 146.288 28.7121C130.696 13.1206 109.55 4.36139 87.5 4.36139C65.4502 4.36139 44.3036 13.1206 28.7121 28.7121C13.1206 44.3036 4.36133 65.4503 4.36133 87.5L87.5 87.5H170.639Z" fill="#EE4035"/>
<path d="M4.36143 87.5C4.36143 109.55 13.1206 130.696 28.7122 146.288C44.3037 161.879 65.4503 170.639 87.5 170.639C109.55 170.639 130.696 161.879 146.288 146.288C161.879 130.696 170.639 109.55 170.639 87.5L87.5001 87.5L4.36143 87.5Z" fill="#ECECEC"/>
<rect x="1.09033" y="83.4112" width="171.184" height="8.72274" fill="#58585A"/>
<path d="M66 87.5C66 99.3741 75.6259 109 87.5 109C99.3741 109 109 99.3741 109 87.5C109 75.6259 99.3741 66 87.5 66C75.6259 66 66 75.6259 66 87.5Z" fill="#DEDEDE"/>
<path fill-rule="evenodd" clip-rule="evenodd" d="M56 87.5C56 104.897 70.103 119 87.5 119C104.897 119 119 104.897 119 87.5C119 70.103 104.897 56 87.5 56C70.103 56 56 70.103 56 87.5ZM87.5 108.615C75.8383 108.615 66.3846 99.1617 66.3846 87.5C66.3846 75.8383 75.8383 66.3846 87.5 66.3846C99.1617 66.3846 108.615 75.8383 108.615 87.5C108.615 99.1617 99.1617 108.615 87.5 108.615Z" fill="#58585A"/>
<path fill-rule="evenodd" clip-rule="evenodd" d="M175 87.5C175 135.825 135.825 175 87.5 175C39.1751 175 0 135.825 0 87.5C0 39.1751 39.1751 0 87.5 0C135.825 0 175 39.1751 175 87.5ZM87.5 170.639C133.416 170.639 170.639 133.416 170.639 87.5C170.639 41.5838 133.416 4.36137 87.5 4.36137C41.5838 4.36137 4.36137 41.5838 4.36137 87.5C4.36137 133.416 41.5838 170.639 87.5 170.639Z" fill="#58585A"/>
</svg>
