<svg width="72" height="106" viewBox="0 0 72 106" fill="none" xmlns="http://www.w3.org/2000/svg">
<path d="M55.5 69C45.5462 68.9578 37 62.958 37 52.9943C37 43.0307 45.5462 36.5422 55.5 36.5L55.5 3C43.0363 3.00001 26.8131 8.68685 18 17.5C9.18686 26.3131 3 40.5307 3 52.9943C3 65.458 10.9512 79.6869 19.7643 88.5C28.5775 97.3131 43.0363 101.5 55.5 101.5L55.5 69Z" fill="#0C8CC9"/>
<path fill-rule="evenodd" clip-rule="evenodd" d="M57.9943 66.0251L57.9943 104.989H52.9943C39.2046 104.989 25.9796 99.5107 16.2288 89.7599C6.47796 80.009 1 66.7841 1 52.9943C1 39.2046 6.47795 25.9796 16.2288 16.2288C25.9796 6.47796 39.2046 1.00001 52.9943 1L57.9943 1L57.9943 39.8069L53.0155 39.828C45.8137 39.8586 39.9845 45.7067 39.9845 52.916C39.9845 60.1253 45.8137 65.9734 53.0155 66.004L57.9943 66.0251ZM52.9943 34.8281C43.0406 34.8703 34.9845 42.9523 34.9845 52.916C34.9845 62.8797 43.0406 70.9617 52.9943 71.0039V99.9886C51.3163 99.9886 49.6475 99.8989 47.9943 99.7221C37.3689 98.5854 27.3909 93.8509 19.7643 86.2243C10.9512 77.4112 6 65.458 6 52.9943C6 40.5307 10.9512 28.5775 19.7643 19.7643C27.3909 12.1377 37.3689 7.40323 47.9943 6.26659C49.6474 6.08975 51.3163 6 52.9943 6L52.9943 34.8281Z" fill="#58585A"/>
<path fill-rule="evenodd" clip-rule="evenodd" d="M52.9162 71.004C62.906 71.004 71.0043 62.9057 71.0043 52.916C71.0043 42.9262 62.906 34.8279 52.9162 34.8279C42.9264 34.8279 34.8281 42.9262 34.8281 52.916C34.8281 62.9057 42.9264 71.004 52.9162 71.004Z" fill="#DCDCDC"/>
<path fill-rule="evenodd" clip-rule="evenodd" d="M52.9162 66.004C60.1446 66.004 66.0043 60.1443 66.0043 52.916C66.0043 45.6876 60.1446 39.8279 52.9162 39.8279C45.6879 39.8279 39.8281 45.6876 39.8281 52.916C39.8281 60.1443 45.6879 66.004 52.9162 66.004ZM71.0043 52.916C71.0043 62.9057 62.906 71.004 52.9162 71.004C42.9264 71.004 34.8281 62.9057 34.8281 52.916C34.8281 42.9262 42.9264 34.8279 52.9162 34.8279C62.906 34.8279 71.0043 42.9262 71.0043 52.916Z" fill="#58585A"/>
<path d="M14.0087 24.1956C13.1504 23.4253 13.1196 22.0908 13.9415 21.2818L20.9533 14.3797C21.7752 13.5707 23.1091 13.6225 23.8657 14.4928L36.9805 29.5778C37.6737 30.3752 37.6271 31.5742 36.8741 32.3153L31.6238 37.4835C30.8708 38.2247 29.6712 38.2524 28.8849 37.5467L14.0087 24.1956Z" fill="#EE4035"/>
<path fill-rule="evenodd" clip-rule="evenodd" d="M10.4341 17.7185L17.446 10.8164C20.3224 7.98498 24.991 8.1663 27.6392 11.2123L40.754 26.2973C43.1802 29.088 43.0173 33.2845 40.3819 35.8787L35.1315 41.0469C32.4961 43.641 28.2976 43.7378 25.5455 41.2678L10.6692 27.9167C7.66535 25.2208 7.55768 20.55 10.4341 17.7185ZM13.9417 21.2818C13.1198 22.0908 13.1506 23.4254 14.0088 24.1956L28.8851 37.5467C29.6714 38.2524 30.871 38.2247 31.624 37.4836L36.8743 32.3154C37.6273 31.5742 37.6739 30.3752 36.9807 29.5778L23.8659 14.4928C23.1092 13.6226 21.7754 13.5707 20.9535 14.3797L13.9417 21.2818Z" fill="#58585A"/>
<path d="M14.0087 81.7932C13.1504 82.5634 13.1196 83.898 13.9415 84.707L20.9533 91.6091C21.7752 92.418 23.1091 92.3662 23.8657 91.4959L36.9805 76.411C37.6737 75.6136 37.6271 74.4146 36.8741 73.6734L31.6238 68.5052C30.8708 67.7641 29.6712 67.7364 28.8849 68.4421L14.0087 81.7932Z" fill="#EE4035"/>
<path fill-rule="evenodd" clip-rule="evenodd" d="M10.4341 88.2702L17.446 95.1723C20.3224 98.0038 24.991 97.8225 27.6392 94.7764L40.754 79.6915C43.1802 76.9007 43.0173 72.7042 40.3819 70.1101L35.1315 64.9419C32.4961 62.3478 28.2976 62.251 25.5455 64.7209L10.6692 78.072C7.66535 80.7679 7.55768 85.4388 10.4341 88.2702ZM13.9417 84.7069C13.1198 83.898 13.1506 82.5634 14.0088 81.7932L28.8851 68.4421C29.6714 67.7364 30.871 67.764 31.624 68.5052L36.8743 73.6734C37.6273 74.4146 37.6739 75.6136 36.9807 76.4109L23.8659 91.4959C23.1092 92.3662 21.7754 92.418 20.9535 91.609L13.9417 84.7069Z" fill="#58585A"/>
</svg>
