<svg width="289" height="266" viewBox="0 0 289 266" fill="none" xmlns="http://www.w3.org/2000/svg">
<path fill-rule="evenodd" clip-rule="evenodd" d="M106.951 265.371C95.1878 265.371 88.6221 258.408 82.3885 249.803C55.6676 212.914 30.4672 174.874 4.86036 137.204C4.86036 137.204 -9.64028 115.202 11.4514 100.871C32.5431 86.5394 47.0435 108.541 47.0435 108.541C67.0838 138.022 87.1616 167.478 107.466 196.779C152.739 135.236 197.495 73.3136 242.291 11.4238C242.291 11.4238 256.793 -9.57845 277.451 5.37097C298.11 20.3204 283.609 41.3212 283.608 41.3229L283.602 41.3303C234.123 109.691 185.061 178.403 134.502 245.974C127.196 255.739 120.671 265.371 106.951 265.371Z" fill="#0C9600"/>
</svg>
