<svg width="72" height="106" viewBox="0 0 72 106" fill="none" xmlns="http://www.w3.org/2000/svg">
<path d="M55.5 69C45.5462 68.9578 37 62.958 37 52.9943C37 43.0307 45.5462 36.5422 55.5 36.5L55.5 3C43.0363 3.00001 26.8131 8.68685 18 17.5C9.18686 26.3131 3 40.5307 3 52.9943C3 65.458 10.9512 79.6869 19.7643 88.5C28.5775 97.3131 43.0363 101.5 55.5 101.5L55.5 69Z" fill="#393939"/>
<path d="M25 11.9888L9 29.9888L56 29.9888L56 11.9888L25 11.9888Z" fill="#F0C03C"/>
<path d="M25 94L9 76L56 76L56 94L25 94Z" fill="#F0C03C"/>
<path fill-rule="evenodd" clip-rule="evenodd" d="M57.9943 66.0251L57.9943 104.989H52.9943C39.2046 104.989 25.9796 99.5107 16.2288 89.7599C6.47796 80.009 1 66.7841 1 52.9943C1 39.2046 6.47795 25.9796 16.2288 16.2288C25.9796 6.47796 39.2046 1.00001 52.9943 1L57.9943 1L57.9943 39.8069L53.0155 39.828C45.8137 39.8586 39.9845 45.7067 39.9845 52.916C39.9845 60.1253 45.8137 65.9734 53.0155 66.004L57.9943 66.0251ZM52.9943 34.8281C43.0406 34.8703 34.9845 42.9523 34.9845 52.916C34.9845 62.8797 43.0406 70.9617 52.9943 71.0039V99.9886C51.3163 99.9886 49.6475 99.8989 47.9943 99.7221C37.3689 98.5854 27.3909 93.8509 19.7643 86.2243C10.9512 77.4112 6 65.458 6 52.9943C6 40.5307 10.9512 28.5775 19.7643 19.7643C27.3909 12.1377 37.3689 7.40323 47.9943 6.26659C49.6474 6.08975 51.3163 6 52.9943 6L52.9943 34.8281Z" fill="#58585A"/>
<path fill-rule="evenodd" clip-rule="evenodd" d="M52.9162 71.004C62.906 71.004 71.0043 62.9057 71.0043 52.916C71.0043 42.9262 62.906 34.8279 52.9162 34.8279C42.9264 34.8279 34.8281 42.9262 34.8281 52.916C34.8281 62.9057 42.9264 71.004 52.9162 71.004Z" fill="#DCDCDC"/>
<path fill-rule="evenodd" clip-rule="evenodd" d="M52.9162 66.004C60.1446 66.004 66.0043 60.1443 66.0043 52.916C66.0043 45.6876 60.1446 39.8279 52.9162 39.8279C45.6879 39.8279 39.8281 45.6876 39.8281 52.916C39.8281 60.1443 45.6879 66.004 52.9162 66.004ZM71.0043 52.916C71.0043 62.9057 62.906 71.004 52.9162 71.004C42.9264 71.004 34.8281 62.9057 34.8281 52.916C34.8281 42.9262 42.9264 34.8279 52.9162 34.8279C62.906 34.8279 71.0043 42.9262 71.0043 52.916Z" fill="#58585A"/>
</svg>
